<?xml version="1.0" standalone="no"?>
<!DOCTYPE svg PUBLIC "-//W3C//DTD SVG 20010904//EN"
 "http://www.w3.org/TR/2001/REC-SVG-20010904/DTD/svg10.dtd">
<svg version="1.0" xmlns="http://www.w3.org/2000/svg"
 width="1194.000000pt" height="1194.000000pt" viewBox="0 0 1194.000000 1194.000000"
 preserveAspectRatio="xMidYMid meet">
<metadata>
Created by potrace 1.14, written by Peter Selinger 2001-2017
</metadata>
<g transform="translate(0.000000,1194.000000) scale(0.100000,-0.100000)"
fill="#000000" stroke="none">
<path d="M30 10746 c19 -46 45 -100 129 -279 28 -59 51 -114 51 -122 0 -7 5
-15 11 -17 5 -2 11 -10 13 -18 2 -8 10 -32 20 -52 9 -21 16 -42 16 -48 0 -5 5
-10 10 -10 6 0 10 -4 10 -10 0 -10 141 -322 150 -330 3 -3 6 -12 8 -20 2 -8
26 -62 54 -120 28 -58 51 -111 51 -117 0 -7 4 -13 8 -13 4 0 11 -10 14 -22 8
-24 25 -63 95 -213 73 -156 83 -180 82 -187 -1 -5 3 -8 8 -8 6 0 10 -6 10 -14
0 -8 11 -36 24 -63 13 -26 36 -75 51 -108 15 -33 42 -91 60 -130 97 -208 127
-276 127 -285 0 -3 9 -17 19 -32 10 -14 19 -31 19 -37 0 -5 11 -30 24 -55 14
-26 23 -46 20 -46 -2 0 8 -20 21 -45 14 -25 26 -48 27 -52 0 -5 17 -42 36 -83
69 -149 92 -200 92 -205 1 -2 21 -45 46 -95 24 -50 44 -92 44 -94 0 -2 20 -47
45 -99 25 -53 45 -101 45 -107 0 -5 5 -10 10 -10 6 0 9 -3 8 -7 -2 -9 7 -31
60 -143 68 -146 94 -205 91 -205 -2 0 6 -16 19 -36 12 -20 19 -39 15 -42 -3
-4 -1 -7 5 -7 7 0 12 -5 12 -10 0 -6 20 -52 44 -103 41 -86 59 -127 108 -237
11 -25 37 -81 58 -125 21 -44 48 -102 60 -130 12 -27 38 -84 57 -125 83 -178
95 -203 124 -267 17 -38 43 -93 57 -123 14 -30 26 -57 27 -60 0 -3 11 -24 23
-47 12 -23 22 -49 22 -58 0 -8 5 -15 10 -15 6 0 10 -6 10 -13 0 -13 23 -64 90
-199 27 -54 27 -57 10 -75 -16 -16 -111 -102 -171 -153 -13 -12 -55 -49 -92
-82 -37 -33 -82 -72 -100 -87 -18 -14 -42 -35 -53 -46 -18 -18 -131 -119 -188
-168 -12 -10 -34 -30 -51 -45 -47 -42 -124 -110 -200 -176 -38 -34 -90 -79
-115 -102 -25 -22 -60 -54 -79 -70 -19 -16 -39 -34 -45 -39 -6 -6 -47 -42 -90
-80 -44 -39 -93 -83 -110 -98 -17 -16 -48 -43 -69 -60 -21 -18 -53 -45 -71
-62 -18 -16 -48 -43 -67 -60 -19 -16 -70 -62 -114 -101 -44 -39 -93 -82 -109
-95 -16 -13 -40 -35 -55 -49 -14 -14 -44 -40 -66 -59 -22 -19 -73 -64 -114
-100 -41 -36 -85 -75 -97 -86 -13 -11 -47 -41 -76 -67 -29 -26 -64 -57 -77
-68 -65 -55 -151 -134 -151 -139 0 -3 443 -6 985 -6 l985 1 42 39 c46 44 42
41 122 110 32 28 68 59 80 70 11 11 55 49 96 85 41 36 86 76 101 90 14 14 47
43 73 65 26 22 62 54 79 70 28 26 102 91 176 154 32 28 170 151 202 181 15 14
51 45 80 70 30 25 61 52 70 61 15 15 18 14 35 -9 27 -37 67 -85 80 -97 6 -5
35 -39 65 -75 30 -35 59 -70 64 -76 6 -6 28 -33 50 -59 22 -26 49 -57 60 -69
11 -11 40 -46 65 -76 24 -30 52 -62 60 -70 8 -8 36 -40 60 -70 25 -30 54 -64
65 -76 11 -11 38 -43 60 -70 36 -44 62 -75 105 -123 25 -28 124 -145 135 -159
5 -7 27 -31 47 -55 21 -23 44 -49 51 -57 7 -8 35 -42 63 -75 27 -32 56 -66 64
-75 8 -9 33 -38 55 -64 70 -84 109 -130 132 -153 12 -13 20 -23 16 -23 -3 0 4
-8 15 -17 11 -10 84 -94 163 -188 79 -93 154 -181 166 -195 12 -14 30 -35 40
-47 62 -74 90 -107 108 -127 11 -13 43 -49 70 -82 28 -32 60 -69 72 -81 12
-13 19 -23 16 -23 -3 0 3 -8 13 -18 11 -9 44 -46 74 -82 30 -36 60 -70 65 -76
6 -6 28 -32 50 -59 22 -26 58 -68 80 -93 22 -24 46 -54 54 -64 7 -11 25 -32
40 -47 14 -15 42 -47 63 -72 20 -24 46 -55 58 -69 12 -14 36 -42 53 -64 18
-21 41 -48 53 -60 11 -11 45 -50 75 -86 30 -36 59 -70 64 -76 6 -6 28 -32 50
-58 67 -80 75 -89 79 -85 3 3 -41 119 -159 414 -5 11 -9 22 -10 25 -1 3 -7 18
-13 33 -7 16 -21 49 -31 75 -11 26 -56 139 -101 252 -44 113 -86 216 -92 230
-6 14 -12 27 -13 30 -1 3 -7 18 -13 33 -7 16 -12 32 -12 37 0 5 -6 21 -14 37
-8 15 -27 60 -42 98 -15 39 -32 84 -40 100 -17 41 -73 181 -91 230 -14 38 -23
59 -60 145 -8 19 -17 42 -19 50 -3 15 -47 126 -64 165 -21 45 -91 221 -95 235
-3 13 -31 83 -66 165 -4 11 -31 79 -59 150 -29 72 -56 141 -62 155 -6 14 -15
35 -19 48 -5 12 -13 32 -18 45 -6 12 -24 58 -42 102 -17 44 -37 94 -45 112 -8
17 -14 35 -14 40 -1 4 -9 26 -20 48 -11 22 -19 48 -20 57 0 9 -7 24 -16 32 -8
9 -12 16 -8 16 3 0 2 6 -4 13 -6 6 -10 16 -10 20 0 4 -13 40 -28 80 -16 40
-27 75 -26 80 1 4 -2 7 -6 7 -5 0 -15 19 -21 43 -7 23 -17 47 -21 52 -4 6 -13
26 -18 45 -6 19 -49 130 -97 245 -47 116 -88 217 -90 225 -2 8 -18 49 -35 90
-18 41 -33 80 -34 85 -2 6 -10 26 -19 45 l-16 35 33 30 c18 17 50 44 70 60 21
17 47 39 60 50 12 11 42 36 66 55 68 54 89 73 121 103 16 15 32 27 34 27 3 0
13 8 23 18 20 19 24 22 162 136 52 44 98 84 102 90 4 6 8 8 8 4 0 -3 13 6 28
20 49 46 102 92 108 92 3 0 15 10 28 23 30 28 113 97 140 117 12 8 28 22 36
31 8 9 83 72 165 140 83 68 155 128 161 134 6 5 28 24 49 40 20 17 50 41 65
55 16 14 36 32 47 40 10 8 45 38 78 65 33 28 71 59 84 70 14 11 35 30 48 43
13 12 28 22 33 22 6 0 10 4 10 8 0 4 21 24 48 45 26 20 59 46 73 59 15 13 48
41 75 63 26 22 58 49 71 60 12 11 39 34 59 50 20 17 45 37 54 46 10 9 26 21
36 27 13 7 -321 10 -1078 10 l-1096 0 -64 -60 c-34 -33 -109 -103 -164 -156
-56 -54 -159 -151 -229 -217 -71 -66 -151 -141 -178 -167 -27 -27 -53 -48 -57
-48 -3 0 -22 19 -40 43 -56 70 -163 192 -172 195 -4 2 -8 8 -8 13 0 5 -13 23
-30 39 -16 16 -30 32 -30 35 0 3 -8 13 -18 23 -16 17 -50 57 -117 137 -16 20
-39 47 -50 59 -28 33 -102 119 -155 181 -25 29 -67 78 -95 110 -27 32 -56 67
-64 79 -8 12 -27 33 -43 49 -15 15 -28 29 -28 32 0 3 -8 13 -17 23 -10 10 -36
40 -58 66 -44 53 -44 53 -95 111 -19 22 -53 62 -75 89 -22 27 -53 64 -70 82
-50 54 -65 74 -65 85 0 5 -4 7 -10 4 -5 -3 -10 -1 -10 5 0 6 -10 21 -22 34
-13 13 -39 43 -58 67 -19 23 -45 53 -57 66 -13 12 -23 24 -23 27 0 3 -12 19
-27 35 -16 16 -35 38 -43 49 -8 11 -34 41 -57 68 -64 73 -64 74 -128 149 -33
38 -64 75 -70 83 -5 7 -25 28 -42 47 -18 20 -33 38 -33 40 0 3 -8 13 -18 23
-9 10 -39 45 -67 77 -27 32 -59 69 -70 81 -11 13 -30 36 -42 51 -12 15 -34 42
-48 58 -15 17 -48 55 -73 85 -26 30 -57 65 -69 78 -13 13 -23 25 -23 28 0 4
-17 24 -75 88 -6 6 -30 36 -55 66 -25 30 -58 70 -75 88 -16 18 -36 42 -45 53
-8 11 -31 37 -50 59 -19 21 -51 57 -70 81 -19 24 -44 53 -55 66 -11 12 -30 35
-42 50 -12 15 -30 37 -40 48 -10 11 -57 65 -103 120 -46 55 -89 105 -95 111
-10 11 -40 46 -168 198 -38 45 -86 101 -107 126 -22 25 -49 56 -61 70 -11 14
-39 47 -62 74 -23 27 -51 60 -62 73 -11 14 -36 43 -56 65 -20 22 -58 68 -85
103 -27 35 -52 64 -56 64 -4 1 1 -19 12 -43z"/>
<path d="M7527 7134 c-1 -1 -42 -4 -91 -8 -95 -6 -247 -40 -281 -62 -11 -7
-24 -13 -28 -13 -12 1 -157 -85 -152 -90 3 -2 -15 -18 -38 -36 -23 -18 -51
-47 -62 -64 -11 -17 -23 -31 -27 -31 -5 0 -8 -7 -8 -15 0 -8 -4 -15 -10 -15
-5 0 -10 -6 -10 -14 0 -8 -3 -16 -7 -18 -5 -1 -25 -37 -46 -78 -42 -82 -157
-303 -261 -500 -36 -69 -87 -168 -113 -220 -27 -52 -50 -97 -53 -100 -3 -3
-27 -50 -55 -105 -27 -55 -53 -101 -57 -103 -5 -2 -8 -12 -8 -22 0 -10 -3 -20
-7 -22 -5 -1 -24 -35 -45 -75 -35 -69 -161 -311 -260 -498 -26 -49 -57 -111
-69 -137 -12 -27 -26 -48 -31 -48 -5 0 -7 -4 -3 -9 3 -5 -3 -17 -12 -27 -10
-10 -17 -19 -15 -21 1 -2 -14 -36 -35 -76 -20 -39 -46 -90 -57 -112 -11 -22
-23 -42 -27 -45 -3 -3 -10 -15 -13 -28 -4 -13 -22 -49 -39 -80 -18 -31 -46
-84 -62 -117 -17 -33 -32 -62 -36 -65 -7 -7 -50 -108 -61 -145 -53 -182 -13
-348 108 -445 24 -19 50 -40 57 -45 61 -52 327 -141 410 -138 15 1 27 -2 27
-6 0 -3 19 -8 43 -9 23 -2 911 -4 1974 -5 l1931 -3 28 51 c15 27 44 83 65 124
21 40 43 79 50 87 6 8 8 14 3 14 -5 0 -4 4 1 8 6 4 20 27 33 52 100 193 145
275 153 278 5 2 6 8 3 13 -3 6 1 18 9 27 8 9 32 51 52 92 21 41 40 77 44 80 3
3 7 12 8 20 2 13 -179 15 -1580 16 -870 0 -1602 3 -1627 6 -25 4 -57 11 -71
17 -15 5 -29 7 -32 5 -3 -3 -24 13 -47 35 -37 35 -41 44 -39 78 2 21 10 49 20
63 9 14 24 41 33 60 8 19 19 42 24 50 5 8 13 24 19 35 5 11 37 72 70 135 34
63 76 144 94 180 19 36 38 68 44 72 5 4 7 8 3 8 -4 0 6 22 22 50 16 28 26 50
22 50 -4 0 -2 4 3 8 6 4 29 43 50 87 22 44 43 82 46 85 3 3 14 24 24 48 11 23
23 42 29 42 5 0 7 3 4 6 -4 3 9 33 28 66 19 33 34 66 34 73 0 7 7 18 15 25 8
7 15 18 15 26 0 7 6 19 14 26 7 8 17 25 21 38 4 14 12 30 17 37 9 11 75 135
140 262 47 90 99 145 172 181 35 17 69 32 77 34 8 1 25 6 38 10 27 9 56 13
158 22 40 3 773 6 1629 7 l1557 2 17 30 c19 35 127 239 212 404 97 186 129
245 139 257 5 6 7 13 4 16 -3 3 1 11 10 18 8 7 15 19 15 28 0 8 6 23 13 31 24
29 38 71 24 71 -36 2 -4379 5 -4380 4z"/>
</g>
</svg>
